<svg width="47" height="47" viewBox="0 0 47 47" fill="none" xmlns="http://www.w3.org/2000/svg">
<path d="M37.3916 13.9083H2.17829C2.16895 14.1048 2.15427 14.2813 2.15427 14.4591C2.15427 21.6498 2.1516 28.8393 2.15427 36.03C2.15427 38.2131 3.4596 39.5151 5.63916 39.5165C10.711 39.5165 15.7815 39.5165 20.8534 39.5165C21.0362 39.5165 21.2217 39.5058 21.4033 39.5271C21.9518 39.5927 22.3522 40.0405 22.3549 40.5779C22.3576 41.138 21.9425 41.5818 21.3619 41.6326C21.2458 41.6433 21.1283 41.642 21.0122 41.642C15.8576 41.642 10.703 41.6487 5.5484 41.6393C2.81494 41.6353 0.70879 39.9937 0.141544 37.427C0.041442 36.9752 0.00807455 36.5006 0.00807455 36.0367C6.63698e-05 26.9637 -0.00126833 17.888 0.00273576 8.81365C0.00407046 6.03306 1.6671 3.86474 4.26442 3.33936C5.02253 3.18563 5.82335 3.23643 6.60548 3.20167C6.88443 3.18964 7.16472 3.20034 7.43299 3.20034C7.81204 1.13361 9.00526 -0.0160593 10.707 -1.74547e-05C12.4114 0.0173612 13.6033 1.1804 13.9276 3.16959H25.6076C25.7103 2.07607 26.1414 1.15366 27.0864 0.532038C27.675 0.144359 28.329 -0.0414589 29.0324 0.0133508C30.7208 0.145696 31.7819 1.24189 32.0742 3.20034C32.269 3.20034 32.4786 3.18964 32.6868 3.20167C33.6331 3.25916 34.6047 3.20435 35.519 3.40621C37.7613 3.90083 39.4697 5.98093 39.4977 8.27491C39.5485 12.3776 39.5204 16.483 39.5151 20.587C39.5151 21.2341 39.0613 21.6886 38.4687 21.6979C37.8534 21.7073 37.4009 21.2541 37.3969 20.5697C37.3862 18.5684 37.3916 16.5659 37.3916 14.5633C37.3916 14.3655 37.3916 14.1663 37.3916 13.9083ZM2.1903 11.7226H37.3409C37.3409 10.49 37.4316 9.28555 37.3168 8.09979C37.1834 6.7242 36.3398 5.76971 34.9891 5.48496C34.0468 5.28712 33.0485 5.35797 32.0942 5.30984C31.7071 7.38994 30.6407 8.45672 28.9483 8.54629C27.2826 8.63452 26.2042 7.62655 25.5702 5.37535H13.9423C13.5299 7.41534 12.4648 8.48613 10.7737 8.54361C10.0543 8.56768 9.38966 8.35913 8.80506 7.93001C7.94685 7.29903 7.53843 6.4194 7.46102 5.36198C6.65086 5.36198 5.88474 5.33524 5.11996 5.36732C3.67582 5.42748 2.34379 6.56512 2.21166 7.99819C2.09954 9.21871 2.18897 10.4579 2.18897 11.7199L2.1903 11.7226ZM9.61922 4.27247C9.61922 4.63876 9.5952 5.00772 9.62456 5.37134C9.67395 5.99964 10.1104 6.40069 10.6977 6.39534C11.2649 6.39133 11.712 6.00766 11.7441 5.40075C11.7841 4.65346 11.7841 3.90083 11.7441 3.15355C11.7134 2.54663 11.2689 2.16029 10.703 2.1536C10.1144 2.14692 9.67662 2.54396 9.62456 3.17226C9.5952 3.53588 9.61922 3.90484 9.61922 4.27113V4.27247ZM27.7911 4.23236C27.7911 4.23236 27.7898 4.23236 27.7884 4.23236C27.7884 4.61469 27.7724 4.9997 27.7924 5.38069C27.8245 5.98093 28.2382 6.38197 28.8122 6.39534C29.3807 6.40871 29.8679 6.01702 29.8946 5.44219C29.9306 4.66148 29.932 3.87543 29.8933 3.09473C29.8652 2.52257 29.3687 2.13622 28.7988 2.15628C28.2462 2.17499 27.8325 2.56401 27.7965 3.13349C27.7738 3.49845 27.7924 3.86607 27.7924 4.23236H27.7911Z" fill="#D9D4D4"/>
<path d="M35.2173 47C28.6786 46.9572 23.464 41.6674 23.5014 35.1157C23.5387 28.6882 28.8642 23.4559 35.3228 23.4987C41.7907 23.5415 47.0467 28.8647 46.9987 35.3255C46.9506 41.7744 41.6345 47.0415 35.2173 47ZM44.8472 35.2721C44.8418 29.9662 40.5614 25.6322 35.3241 25.6296C29.9346 25.6282 25.6155 29.9435 25.6329 35.3162C25.6489 40.5712 29.964 44.8384 35.2694 44.8464C40.5361 44.8544 44.8525 40.5405 44.8472 35.2721Z" fill="#D9D4D4"/>
<path d="M23.5013 20.8571C23.5013 21.3571 23.5067 21.857 23.5013 22.3557C23.4867 23.6083 22.6458 24.5173 21.3965 24.5628C20.3154 24.6015 19.2303 24.5989 18.1492 24.5641C16.9186 24.524 16.0604 23.6524 16.027 22.4212C15.9977 21.3557 15.9963 20.2889 16.027 19.2235C16.0644 17.9522 16.9747 17.1006 18.2573 17.0913C19.273 17.0846 20.2887 17.0819 21.3044 17.0913C22.5951 17.1033 23.4853 18.0056 23.5 19.3064C23.5053 19.8224 23.5 20.3384 23.5 20.8558L23.5013 20.8571ZM18.2026 19.2462V22.3797H21.3391V19.2462H18.2026Z" fill="#D9D4D4"/>
<path d="M5.36283 20.8277C5.36283 20.2609 5.34414 19.6927 5.36683 19.1259C5.41087 17.9923 6.29578 17.118 7.43427 17.0953C8.5354 17.0739 9.63652 17.0739 10.7376 17.0953C11.8935 17.118 12.7797 18.007 12.8064 19.1754C12.8305 20.2595 12.8278 21.3437 12.8104 22.4279C12.7904 23.635 11.9549 24.512 10.7376 24.5587C9.63786 24.6015 8.53406 24.6015 7.43561 24.5587C6.19968 24.5106 5.38285 23.623 5.36016 22.3771C5.35081 21.8597 5.35882 21.3424 5.35882 20.825C5.36016 20.825 5.36149 20.825 5.36416 20.825L5.36283 20.8277ZM10.6616 19.2462H7.51836V22.3958H10.6616V19.2462Z" fill="#D9D4D4"/>
<path d="M9.07859 27.7832C9.64584 27.7832 10.2131 27.7658 10.779 27.7872C11.9028 27.83 12.7717 28.6789 12.8011 29.7991C12.8304 30.9327 12.8304 32.0677 12.8011 33.2013C12.773 34.3256 11.9108 35.1945 10.791 35.2239C9.65785 35.2533 8.52202 35.2533 7.38887 35.2239C6.26505 35.1959 5.39483 34.3323 5.3668 33.2134C5.33744 32.0797 5.33877 30.9448 5.3668 29.8111C5.39349 28.6882 6.25704 27.8313 7.37685 27.7859C7.94276 27.7631 8.51135 27.7818 9.07726 27.7818L9.07859 27.7832ZM7.50632 33.0823H10.6575V29.9408H7.50632V33.0823Z" fill="#D9D4D4"/>
<path d="M18.1959 29.8981V33.1091C18.8659 33.1091 19.5119 33.1064 20.1566 33.1091C20.9173 33.1145 21.3992 33.5289 21.4005 34.1732C21.4005 34.8229 20.9347 35.2266 20.1592 35.2333C19.5092 35.24 18.8579 35.244 18.2079 35.232C16.964 35.2093 16.0764 34.3884 16.031 33.1546C15.9896 32.0557 15.991 30.9528 16.031 29.8539C16.0764 28.6388 16.9533 27.8033 18.1599 27.7819C19.2263 27.7632 20.294 27.7712 21.3618 27.7832C21.59 27.7859 21.8303 27.8233 22.0452 27.8995C22.5857 28.092 22.854 28.6 22.7299 29.1281C22.5977 29.6868 22.1226 30.0077 21.5313 29.9395C21.3658 29.9208 21.2003 29.8981 21.0348 29.8967C20.1032 29.8927 19.1729 29.8954 18.1959 29.8954V29.8981Z" fill="#D9D4D4"/>
<path d="M32.0407 19.2395H28.8601C28.8508 19.4334 28.8348 19.6098 28.8334 19.7863C28.8294 20.6365 28.8441 21.4881 28.8201 22.3369C28.8041 22.9238 28.3583 23.3489 27.8044 23.369C27.2572 23.389 26.7366 22.9719 26.722 22.4025C26.6913 21.2528 26.6646 20.0991 26.7353 18.9521C26.7994 17.9161 27.715 17.1207 28.7627 17.0979C29.8798 17.0739 30.997 17.0739 32.1141 17.0979C33.2246 17.122 34.0721 17.9495 34.1709 19.0952C34.2096 19.5417 34.2043 19.9962 34.1762 20.444C34.1375 21.0817 33.7104 21.4921 33.1285 21.5001C32.5266 21.5095 32.0848 21.0857 32.0434 20.4293C32.0194 20.0496 32.0394 19.6673 32.0394 19.2395H32.0407Z" fill="#D9D4D4"/>
<path d="M2.19022 11.7226C2.19022 10.4607 2.1008 9.22143 2.21291 8.00091C2.34505 6.5665 3.67707 5.4302 5.12121 5.37004C5.88466 5.33796 6.65078 5.3647 7.46227 5.3647C7.53968 6.42079 7.9481 7.30042 8.80631 7.93273C9.39091 8.36319 10.0556 8.57173 10.775 8.54633C12.4661 8.48885 13.5311 7.41806 13.9436 5.37807H25.5728C26.2068 7.62927 27.2852 8.63724 28.9509 8.54901C30.6433 8.45944 31.7097 7.39266 32.0968 5.31256C33.0524 5.36069 34.0508 5.28983 34.9917 5.48768C36.3424 5.77109 37.186 6.72692 37.3194 8.10251C37.4342 9.28693 37.3435 10.4927 37.3435 11.7253H2.19022V11.7226Z" fill="#169A16"/>
<path d="M9.61918 4.27246C9.61918 3.90617 9.59516 3.5372 9.62452 3.17359C9.67524 2.54662 10.1144 2.14824 10.703 2.15493C11.2689 2.16161 11.7133 2.54795 11.744 3.15487C11.7827 3.90216 11.7827 4.65479 11.744 5.40207C11.712 6.00899 11.2649 6.39132 10.6976 6.39667C10.1117 6.40068 9.67524 6.00097 9.62452 5.37266C9.59516 5.00904 9.61918 4.64008 9.61918 4.27379V4.27246Z" fill="#169A16"/>
<path d="M27.7897 4.23238C27.7897 3.86609 27.771 3.49846 27.7937 3.13351C27.8298 2.56402 28.2435 2.17501 28.7961 2.15629C29.366 2.13758 29.8612 2.52392 29.8905 3.09474C29.9293 3.87544 29.9279 4.66016 29.8919 5.4422C29.8652 6.01703 29.378 6.40872 28.8094 6.39535C28.2369 6.38199 27.8218 5.98094 27.7897 5.38071C27.7697 4.99838 27.7857 4.61471 27.7857 4.23238C27.7857 4.23238 27.7871 4.23238 27.7884 4.23238H27.7897Z" fill="#169A16"/>
<path d="M44.8472 35.2721C44.8525 40.5405 40.5361 44.8544 35.2694 44.8464C29.964 44.8384 25.6502 40.5712 25.6329 35.3162C25.6155 29.9435 29.9346 25.6282 35.3241 25.6296C40.5614 25.6309 44.8418 29.9649 44.8472 35.2721ZM34.1883 32.5597C34.1883 33.4099 34.1522 34.2614 34.207 35.1076C34.2283 35.4432 34.3778 35.8309 34.5994 36.0795C35.2053 36.764 35.8753 37.395 36.5307 38.034C37.0445 38.5353 37.6865 38.5566 38.127 38.1102C38.5634 37.6663 38.5314 37.034 38.0282 36.5127C37.553 36.022 37.0485 35.5595 36.5907 35.0528C36.4426 34.8884 36.3318 34.6264 36.3291 34.4085C36.3064 32.9433 36.3224 31.4768 36.3144 30.0103C36.3104 29.3232 35.882 28.8553 35.2747 28.838C34.6554 28.8206 34.2016 29.3005 34.1923 30.0117C34.1816 30.8606 34.1896 31.7108 34.1896 32.561L34.1883 32.5597Z" fill="#169A16"/>
<path d="M34.1896 32.5596C34.1896 31.7094 34.1816 30.8605 34.1922 30.0103C34.2016 29.3005 34.6554 28.8192 35.2747 28.8366C35.882 28.854 36.3104 29.3232 36.3144 30.009C36.3224 31.4755 36.3064 32.9406 36.3291 34.4071C36.3331 34.6264 36.4425 34.8884 36.5907 35.0515C37.0472 35.5581 37.553 36.0207 38.0282 36.5113C38.5327 37.0326 38.5647 37.665 38.1269 38.1088C37.6878 38.5553 37.0445 38.5339 36.5306 38.0326C35.8753 37.3922 35.2053 36.7626 34.5993 36.0781C34.3791 35.8295 34.2296 35.4405 34.2069 35.1063C34.1522 34.2601 34.1882 33.4085 34.1896 32.5583V32.5596Z" fill="#D9D4D4"/>
</svg>
